<?xml version="1.0" encoding="UTF-8"?>
<svg width="141px" height="34px" viewBox="0 0 141 34" version="1.1" xmlns="http://www.w3.org/2000/svg" xmlns:xlink="http://www.w3.org/1999/xlink">
    <!-- Generator: Sketch 51.2 (57519) - http://www.bohemiancoding.com/sketch -->
    <title>Header</title>
    <desc>Created with Sketch.</desc>
    <defs></defs>
    <g id="Page-1" stroke="none" stroke-width="1" fill="none" fill-rule="evenodd">
        <g id="Header" fill-rule="nonzero">
            <path d="M140.945455,4.32727273 L136.011424,4.32727273 C135.223147,4.32727273 134.493261,4.85400753 134.288893,5.64410974 L130.610267,18.6954276 L125.880605,4.32727273 L125.793018,4.32727273 L119.574389,4.32727273 L119.486802,4.32727273 L112.509091,29.0545455 L117.443121,29.0545455 C118.231398,29.0545455 118.961284,28.5278107 119.165652,27.7377084 L122.931865,14.4522862 L127.690722,28.9374933 L127.661527,29.0252824 L127.719918,29.0252824 L133.967743,29.0252824 L134.026134,29.0252824 L133.996939,28.9374933 L140.945455,4.32727273 Z" id="Shape" fill="#FF8200"></path>
            <path d="M109.988068,4.32727273 L107.264205,14.0426036 L98.8318182,14.0426036 L100.918182,6.60979021 C101.236932,5.46853147 100.396591,4.32727273 99.2085227,4.32727273 L95.3255682,4.32727273 L88.4,29.0545455 L94.6301136,29.0545455 L97.4409091,18.9880581 L105.873295,18.9880581 L103.7,26.772028 C103.38125,27.9132867 104.221591,29.0545455 105.409659,29.0545455 L109.292614,29.0545455 L116.218182,4.32727273 L109.988068,4.32727273 Z" id="Shape" fill="#FF8200"></path>
            <path d="M71.3790616,23.1726735 L74.6172252,11.6137708 C74.9930835,10.2384077 76.2652192,9.27272727 77.6819157,9.27272727 L90.7213065,9.27272727 L92.1090909,4.32727273 L76.6121653,4.32727273 C72.9692312,4.32727273 69.7599799,6.78536848 68.7769659,10.3261969 L65.0762075,23.5823561 C64.2955788,26.3330823 66.3483432,29.0545455 69.1817364,29.0545455 L85.2279933,29.0545455 L89.4202587,14.0426036 L80.0238019,14.0426036 C79.2431732,14.0426036 78.5203688,14.5693384 78.3179836,15.3594406 L77.3060575,19.0173211 L81.8163567,19.0173211 L80.370748,24.138354 L72.101866,24.138354 C71.5814469,24.0798279 71.2634129,23.6408822 71.3790616,23.1726735" id="Shape" fill="#FF8200"></path>
            <path d="M29.3192183,33.695984 L43.9643274,29.9743118 L48.8363636,12.5381308 L37.7292809,1.08006899 C36.8302742,0.171629306 35.5542647,-0.209329271 34.3072555,0.113020294 L8.12006046,6.76514313 C6.11904556,7.26331973 4.52403369,8.84576305 3.94402937,10.867774 L0,25.0218503 L14.0361045,21.4467006 L25.1431872,32.9047624 C26.6221982,34.2234651 27.5792054,34.1648561 29.3192183,33.695984" id="Shape" fill="#074F80"></path>
            <path d="M30.1683006,15.0629684 L19.0612179,3.70909091 L18.3942129,6.09021099 L30.9223062,18.8959909 C30.7483049,19.4767519 30.0232995,19.6800183 29.5882963,19.2444475 L18.0172101,7.42596128 L17.3502051,9.80708135 L29.8782984,22.6128613 C29.7042971,23.1936223 28.9792917,23.3968886 28.5442885,22.9613179 L16.9732023,11.1428316 L16.3061974,13.5239517 L28.8342906,26.3297317 C28.6602894,26.9104927 27.935284,27.113759 27.5002807,26.6781883 L15.9291946,14.859702 L15.2621896,17.2408221 L27.7902829,30.046602 C27.6162816,30.627363 26.8912762,30.8306294 26.4562729,30.3950586 L14.8851868,18.5765724 L14.2181818,20.9576925 L25.3252645,32.3115699 C26.2242712,33.2117494 27.5002807,33.5892441 28.74729,33.2698255 L54.934485,26.6491502 C56.9354999,26.1264653 58.5305118,24.5874487 59.1105161,22.5838232 L63.0545455,8.52940717 L33.5903261,15.9631479 C32.372317,16.3406425 31.0673073,15.9631479 30.1683006,15.0629684" id="Shape" fill="#FF8200"></path>
            <path d="M35.2363636,3.06474021 L47.8389377,16.0727273 L48.2181818,14.7158851 L36.5783044,2.71078138 C36.140715,2.26833284 35.3822268,2.47480882 35.2363636,3.06474021" id="Shape" fill="#FF8200"></path>
            <path d="M34,6.78121336 L46.6025741,19.7818182 L46.9818182,18.425746 L35.3419408,6.42745541 C34.933524,5.98525797 34.1750358,6.16213694 34,6.78121336" id="Shape" fill="#FF8200"></path>
            <path d="M33.3818182,10.482922 L45.9843922,23.4909091 L46.3636364,22.1340669 L34.7529316,10.1289632 C34.3153422,9.68651465 33.5568539,9.89299064 33.3818182,10.482922" id="Shape" fill="#FF8200"></path>
            <path d="M32.1454545,14.8101948 L44.7480286,27.8181818 L45.1272727,26.4613396 L33.4873953,14.4562359 C33.0789785,14.0137874 32.3204903,14.2202634 32.1454545,14.8101948" id="Shape" fill="#FF8200"></path>
        </g>
    </g>
</svg>